<svg xmlns="http://www.w3.org/2000/svg" viewBox="0 0 504.79 220.73"><defs><style>.cls-1{fill:none;stroke:#3a3f44;stroke-linecap:round;stroke-linejoin:round;stroke-width:0.75px;}</style></defs><title>Bygdegård</title><g id="Layer_2" data-name="Layer 2"><g id="Layer_3" data-name="Layer 3"><polyline class="cls-1" points="92.67 197.99 17.93 196.57 18.78 203.65 80.5 204.78"/><path class="cls-1" d="M21.17,196c0-9.46.66-19.17,0-28.59-1-14.09,1.31-63.93-.17-74.85C14.32,91.81,7.1,92.77.38,93"/><line class="cls-1" x1="0.66" y1="90.12" x2="38.31" y2="75.4"/><path class="cls-1" d="M61,66.62c7.65-4,13.87-6.81,22.43-8.61l38.74-8.16c9.23-1.94,48.45-5.54,58.73-6.12C190.93,43.16,201,41.78,211,40.4c26-3.58,51.63-8.59,77.63-12.56"/><path class="cls-1" d="M301.89,25.85,457.32.38l-70.5,74.17S294,79.36,272.44,82.48s-68.79,8.77-74.17,9.34-85.78,6.23-85.78,6.23l45-24.92L8.79,90.09"/><path class="cls-1" d="M457.06,4c1.3,14.87,9.32,28.27,12.86,42.76.89,3.63,7,18.56,9.37,22.29,3.71,5.93,6.84,12.19,10,18.44l9.65,19.29c2.07,4.14,3.76,8.48,5.51,12.67-4.51.93-9.36,1.06-14,1.53v21l-10.19-.57-5.1,3.12,1.7,62.85-83.23,7.93"/><path class="cls-1" d="M469.49,144.2,370.7,124.1c-.12,0-1.95,28.26-1.82,31,.15,3,.46,6.09.77,9.13,1.86,18.13,2.63,36,3,54.19l13.59-1.13"/><polyline class="cls-1" points="90.97 87.86 92.39 209.88 150.99 211.01"/><path class="cls-1" d="M369.55,210.44l-16.47-.26-8.16-.3-19.82,1.7c.34-18,.36-35.67-.75-53.61a148.51,148.51,0,0,1,1.06-29.05c.36-2.64.35-6.78,1.86-8.86.53-.73,4.06-2.23,4.06-3v-5.09l3.12-4L232.21,87.85l-85.75,34-4.53,9.34,11.32,3.12-2,69.24v.4L151,211l20.95-2.27"/><line class="cls-1" x1="334.45" y1="107.96" x2="361.91" y2="112.49"/><polyline class="cls-1" points="352.85 125.79 353.13 218.51 346.9 218.94 326.52 220.35"/><line class="cls-1" x1="171.94" y1="122.4" x2="171.94" y2="209.31"/><polyline class="cls-1" points="153.54 127.21 234.79 95.78 325.1 116.45"/><polyline class="cls-1" points="149.57 125.79 234.51 91.54 331.33 111.92"/><polygon class="cls-1" points="443.16 43.13 447.69 45.39 447.69 57 443.16 55.3 443.16 43.13"/><path class="cls-1" d="M50.52,46.3a46.6,46.6,0,0,1-.73,7.81c-.29,1.82.7,17.42.7,21.57L40.58,78s.34-8.23.39-8.76c.37-4.18,1-8.42.2-12.6-.59-3.07-1.32-5.72-1.14-8.87C40.07,47,49.41,46.33,50.52,46.3Z"/><polyline class="cls-1" points="50.49 46.24 60.68 49.07 60.96 71.72"/><line class="cls-1" x1="134" y1="109.09" x2="91.25" y2="112.49"/><polygon class="cls-1" points="95.5 115.03 110.79 114.19 110.5 177.32 94.37 177.32 95.5 115.03"/><polyline class="cls-1" points="133.72 111.92 126.64 112.77 125.23 176.47 141.08 176.47 141.93 131.17"/><line class="cls-1" x1="103.02" y1="114.66" x2="103.02" y2="176.76"/><line class="cls-1" x1="95.67" y1="156.14" x2="110.13" y2="156.14"/><line class="cls-1" x1="95.43" y1="134.57" x2="110.6" y2="133.62"/><line class="cls-1" x1="126.01" y1="133.39" x2="141.65" y2="132.44"/><line class="cls-1" x1="125.3" y1="154.48" x2="141.18" y2="154.01"/><line class="cls-1" x1="156.65" y1="134" x2="171.52" y2="133.15"/><polygon class="cls-1" points="209.59 128.06 212.99 130.61 213.56 196.57 211.58 196.57 211.58 199.4 269.05 199.4 269.05 128.62 271.6 128.62 271.6 127.21 273.86 127.21 273.01 124.94 209.59 128.06"/><line class="cls-1" x1="219.79" y1="130.89" x2="219.79" y2="196.29"/><line class="cls-1" x1="213.23" y1="138.13" x2="219.16" y2="138.13"/><line class="cls-1" x1="263.1" y1="198.55" x2="263.1" y2="128.34"/><line class="cls-1" x1="224.32" y1="138.53" x2="263.1" y2="137.68"/><line class="cls-1" x1="229.41" y1="138.67" x2="229.41" y2="199.28"/><line class="cls-1" x1="255.17" y1="140.23" x2="255.17" y2="199.04"/><polyline class="cls-1" points="193.74 209.59 193.74 206.2 197.99 204.78 197.99 200.53 270.18 200.53"/><line class="cls-1" x1="199.97" y1="204.5" x2="263.95" y2="205.91"/><polyline class="cls-1" points="94.93 180.43 109.37 180.15 109.37 196.29 94.65 196 94.37 185.25"/><rect class="cls-1" x="112.49" y="179.87" width="9.63" height="16.14"/><path class="cls-1" d="M124.38,179.87l-.29,16.7,17,.28V179.58H128.34"/><polyline class="cls-1" points="151.79 179.84 144.48 179.87 144.19 196.85 151.37 196.8"/><polyline class="cls-1" points="152.32 177.31 144.19 177.04 145.37 132.33"/><polygon class="cls-1" points="113.62 113.05 122.68 112.2 122.11 177.32 112.77 177.32 113.62 113.05"/><line class="cls-1" x1="151.27" y1="203.93" x2="171.52" y2="203.54"/><line class="cls-1" x1="171.75" y1="204.97" x2="197.99" y2="204.78"/><line class="cls-1" x1="372.51" y1="209.94" x2="476.33" y2="200.94"/><polygon class="cls-1" points="387.95 141.93 398.71 142.78 398.71 176.19 388.52 175.62 387.95 141.93"/><polygon class="cls-1" points="420.23 147.03 429.29 147.88 429.29 177.04 421.36 176.19 420.23 147.03"/><polyline class="cls-1" points="431.84 148.16 438.06 148.72 438.06 177.32 430.99 177.04 431.27 153.25"/><polygon class="cls-1" points="440.9 149.29 440.61 177.32 447.12 177.32 447.69 149.86 440.9 149.29"/><polygon class="cls-1" points="462.13 153.25 467.51 154.1 468.07 177.6 462.41 177.6 462.13 153.25"/><polyline class="cls-1" points="401.54 64.64 400.69 91.25 410.04 95.22 410.32 66.91 405.51 64.64"/><polygon class="cls-1" points="422.78 72.85 423.06 100.31 432.12 103.43 432.97 77.66 422.78 72.85"/><polyline class="cls-1" points="434.95 78.8 434.38 104.28 440.05 105.97 440.61 82.19 437.21 79.93"/><polygon class="cls-1" points="449.39 86.72 449.39 108.81 462.98 113.62 462.98 92.1 449.39 86.72"/><polygon class="cls-1" points="471.47 95.78 471.47 116.45 476.85 118.72 476.85 98.05 471.47 95.78"/><polyline class="cls-1" points="189.49 119.28 192.61 117.58 193.17 125.79"/><path class="cls-1" d="M220.92,120.7s-2-4.25,1.7-4.25,2,8.21-3.12,7.08"/><path class="cls-1" d="M257.44,116.17s1.42-2.55,3.68-2.55,2.27,3.11,2.27,3.11l-2.84,5.1,3.12-.57"/><path class="cls-1" d="M295.94,117.87c-2.55-.29-4-5.67,0-5.67s3.4,3.4,3.4,4.82-4.53,4.53-4.53,4.53"/><path class="cls-1" d="M298.21,32.08l-.29-10.19,1.14-.56L294,18.21l-4.53,3.4,1.42,1.13V33.5l-4.25,4,7.8-.61c1.54-.12,3.59.11,5.05-.31,1.61-.46,2.31-1.73,3.38-3a5.57,5.57,0,0,1,.94-.94c.36-.27.77-.45,1.13-.71a9.61,9.61,0,0,0,1.46-1.59c1.17-1.41,2.74-1.89,4-3q-6.08.59-12.17,1.13"/><line class="cls-1" x1="353.13" y1="218.37" x2="372.67" y2="218.37"/><line class="cls-1" x1="63.94" y1="65.13" x2="272.81" y2="39.51"/><line class="cls-1" x1="315.81" y1="35.51" x2="439.01" y2="19.36"/><polyline class="cls-1" points="64.81 71.51 340.81 45.51 422.27 36.11"/><line class="cls-1" x1="169.81" y1="70.51" x2="403.81" y2="50.51"/><line class="cls-1" x1="131.81" y1="87.51" x2="386.81" y2="63.51"/><line class="cls-1" x1="433.43" y1="4.85" x2="420.59" y2="20.48"/><line class="cls-1" x1="411.66" y1="7.64" x2="397.81" y2="24.51"/><line class="cls-1" x1="390.45" y1="11.55" x2="382.08" y2="25.5"/><line class="cls-1" x1="372.81" y1="14.51" x2="364.22" y2="29.13"/><line class="cls-1" x1="351.66" y1="17.97" x2="345.8" y2="31.36"/><line class="cls-1" x1="333.81" y1="20.51" x2="326.83" y2="33.32"/><line class="cls-1" x1="372.78" y1="27.92" x2="364.81" y2="42.51"/><line class="cls-1" x1="389.52" y1="26.06" x2="381.81" y2="40.51"/><line class="cls-1" x1="409.25" y1="23.08" x2="402.18" y2="37.97"/><line class="cls-1" x1="354.81" y1="30.51" x2="349.34" y2="43.92"/><line class="cls-1" x1="336.81" y1="33.51" x2="331.48" y2="46.15"/><line class="cls-1" x1="306.81" y1="38.51" x2="302.81" y2="47.51"/><line class="cls-1" x1="267.81" y1="31.51" x2="265.06" y2="39.83"/><line class="cls-1" x1="243.85" y1="34.8" x2="241.06" y2="42.99"/><line class="cls-1" x1="220.84" y1="41.51" x2="219.11" y2="45.78"/><line class="cls-1" x1="200.5" y1="48.2" x2="202.81" y2="43.51"/><line class="cls-1" x1="391.85" y1="40.01" x2="386.55" y2="51.46"/><line class="cls-1" x1="374.83" y1="41.69" x2="368.97" y2="53.41"/><line class="cls-1" x1="357.8" y1="43.36" x2="353.62" y2="54.8"/><line class="cls-1" x1="338.55" y1="45.87" x2="334.92" y2="56.2"/><line class="cls-1" x1="313.99" y1="48.11" x2="311.81" y2="54.51"/><line class="cls-1" x1="282.81" y1="51.51" x2="279.11" y2="61.22"/><line class="cls-1" x1="254.27" y1="41.97" x2="250.92" y2="53.13"/><line class="cls-1" x1="263.2" y1="53.13" x2="260.69" y2="62.06"/><line class="cls-1" x1="318.73" y1="69.59" x2="320.81" y2="60.51"/><line class="cls-1" x1="344.41" y1="55.64" x2="341.62" y2="67.92"/><line class="cls-1" x1="360.87" y1="75.73" x2="363.66" y2="65.97"/><line class="cls-1" x1="332.13" y1="69.04" x2="328.5" y2="77.13"/><line class="cls-1" x1="297.25" y1="72.11" x2="294.45" y2="80.2"/><line class="cls-1" x1="293.34" y1="59.83" x2="289.81" y2="69.51"/><line class="cls-1" x1="245.62" y1="64.01" x2="239.76" y2="76.85"/><line class="cls-1" x1="271.29" y1="62.06" x2="267.11" y2="74.06"/><line class="cls-1" x1="209.62" y1="67.36" x2="203.81" y2="80.51"/><line class="cls-1" x1="230.83" y1="55.92" x2="227.48" y2="65.69"/><line class="cls-1" x1="183.81" y1="60.51" x2="189.81" y2="50.51"/><line class="cls-1" x1="210.45" y1="47.27" x2="206.55" y2="57.59"/><line class="cls-1" x1="155.11" y1="53.97" x2="150.64" y2="62.9"/><line class="cls-1" x1="177.43" y1="44.66" x2="173.81" y2="51.51"/><line class="cls-1" x1="183.01" y1="82.99" x2="179.29" y2="92.29"/><line class="cls-1" x1="119.81" y1="58.51" x2="116.81" y2="63.51"/></g></g></svg>