<svg xmlns="http://www.w3.org/2000/svg" viewBox="0 0 679.08 596.62"><defs><style>.cls-1,.cls-13,.cls-2,.cls-3,.cls-4,.cls-5{fill:none;stroke:#3a3f44;stroke-linecap:round;}.cls-1,.cls-13,.cls-3,.cls-4{stroke-miterlimit:10;}.cls-1,.cls-2{stroke-width:0.75px;}.cls-2,.cls-5{stroke-linejoin:round;}.cls-3{stroke-width:2px;}.cls-6{font-size:16.51px;font-family:Granville-Regular, Granville;}.cls-6,.cls-7{fill:#3a3f44;}.cls-8{letter-spacing:0em;}.cls-9{letter-spacing:-0.01em;}.cls-10{letter-spacing:0em;}.cls-11{letter-spacing:-0.03em;}.cls-12{letter-spacing:0.01em;}.cls-13{stroke-width:1.57px;}</style></defs><title>Karta</title><g id="Layer_2" data-name="Layer 2"><g id="Layer_3" data-name="Layer 3"><polyline class="cls-1" points="370.31 321.36 370.17 189.22 396.63 170.85 397.33 326.47"/><line class="cls-1" x1="397.4" y1="170.34" x2="439.69" y2="183.28"/><path class="cls-1" d="M437.32,225.69l100.25,21.14S546.76,261,551,264.58s17,22.45,17,22.45"/><line class="cls-1" x1="438.78" y1="272.93" x2="439.61" y2="326.16"/><line class="cls-1" x1="441.59" y1="273.69" x2="565.64" y2="287.55"/><polyline class="cls-1" points="572.01 292.38 564.11 289.33 565.16 327.28"/><line class="cls-1" x1="569.72" y1="293.14" x2="572.04" y2="325.74"/><polyline class="cls-1" points="370.57 194.45 396.55 181.02 436.76 191.42"/><line class="cls-1" x1="424.37" y1="147.13" x2="422.19" y2="156.83"/><polyline class="cls-1" points="380.05 149.09 378.55 173.93 381.59 159.41"/><polyline class="cls-1" points="383.37 157.11 386.43 158.13 387.71 166.02 387.72 168.31 385.42 168.06 382.61 159.92 380.84 170.62"/><polyline class="cls-1" points="390.77 163.22 399.39 136.97 401.18 137.23 407.07 163.2"/><polyline class="cls-1" points="412.16 165.48 412.16 163.96 416.73 154.53 421.59 167.51 420.83 168.53 416.99 157.58 412.93 166.25"/><line class="cls-1" x1="404.65" y1="61.83" x2="407.83" y2="160.14"/><line class="cls-1" x1="403.81" y1="61.82" x2="391.27" y2="157.61"/><polyline class="cls-1" points="393 115.33 397.47 112.15 406 112.14 412.87 114.29"/><polyline class="cls-1" points="395.79 102.34 398.45 100.64 406.13 100.63 409.28 101.81"/><polyline class="cls-1" points="408.78 108.18 411.07 103.34 412.6 109.2"/><line class="cls-1" x1="412.1" y1="111.74" x2="412.11" y2="108.01"/><line class="cls-1" x1="409.04" y1="110.73" x2="409.04" y2="107.54"/><polyline class="cls-1" points="411.07 101.3 409.54 101.3 407.76 107.16"/><polyline class="cls-1" points="394.48 103.3 395.79 109.47 396.81 109.72"/><polyline class="cls-1" points="397.32 106.67 396.37 102.53 394.48 102.06"/><line class="cls-1" x1="404.37" y1="39.29" x2="404.36" y2="35.34"/><line class="cls-1" x1="404.5" y1="45.91" x2="404.37" y2="43.24"/><line class="cls-1" x1="404.39" y1="58.14" x2="404.38" y2="50.37"/><path class="cls-1" d="M404,46.17l-1.65,2.17s.17,1.93,1.87,1.93,2.21-2.45,2.21-2.45l-2.08-2.1"/><path class="cls-1" d="M401.58,52.41s1.27-.51,1.66.13.62,3.24,1,3.31.89-2.68,1.4-3.19,1.53,0,1.53,0"/><path class="cls-2" d="M404.27,39.39l-1.69-1.24-1,.76,1,1.28s-.51,3.05,1,3.05A3.57,3.57,0,0,0,406.15,42l.77,1V40.69s1,.51,1,1.27c.5-1.53.25-3.56-.52-3.56A15.56,15.56,0,0,0,404.27,39.39Z"/><path class="cls-1" d="M411.49,238.58l4.58.5,0-22.66s0-6.12-1.79-6.11-2.52,23.18-2.52,23.18"/><path class="cls-1" d="M419.64,239.59l4.08,1s1.23-29-2.59-29C419.61,212.08,419.64,239.59,419.64,239.59Z"/><path class="cls-1" d="M416.41,307.85l.39-19.18a14.28,14.28,0,0,1,2.75-8.14l.14-.19,1.11,1.38a9.38,9.38,0,0,1,2.06,5.56l.69,20.82Z"/><path class="cls-1" d="M376.19,322.67l0-14A18.28,18.28,0,0,1,379.6,298l1.14-1.6,2.51,2.9a9.57,9.57,0,0,1,2.34,6.27l0,18.33"/><path class="cls-1" d="M381.69,240.91l4.59-1L387,217l-2.55-3.22a.52.52,0,0,0-1,0l-.79,5.25-.74,18.85"/><path class="cls-1" d="M376.35,242.7l3.82-1.28.22-25.21-.37-.55a1.36,1.36,0,0,0-2.45.41l-.44,1.66a24.32,24.32,0,0,0-.81,6.23Z"/><path class="cls-1" d="M456.67,319.52l0-27.25c0-2.81,1.26-8.41,4.83-7.65s4.08,7.38,4.08,10.18.29,22.92.29,22.92"/><path class="cls-1" d="M490.8,318.71s-.54-25-.54-25.21,1-5.35,4.07-5.36,4.07,3.56,4.08,6.88l0,24.19"/><path class="cls-1" d="M521.36,326.4s-.79-29.12-.28-30.65,1-4.58,3-4.59,4.59,2.8,4.59,7.38.28,28.36.28,28.36"/><path class="cls-1" d="M550.65,325.6s-.53-24.54-.53-26.57,1.26-4.84,3-4.85,3.31,3.57,3.32,8.15.78,23,.78,23"/><polyline class="cls-1" points="372.31 270.72 396.49 264.07 431.9 269.63"/><polyline class="cls-1" points="372.82 272.76 396.95 266.67 431.14 271.67"/><line class="cls-1" x1="380.17" y1="138.65" x2="380.18" y2="148.33"/><polyline class="cls-1" points="378.9 144.26 380.31 146 381.7 144.25"/><line class="cls-1" x1="400.27" y1="126.91" x2="400.28" y2="136.59"/><polyline class="cls-1" points="399.01 132.52 400.42 134.26 401.81 132.51"/><line class="cls-1" x1="425.5" y1="135.29" x2="425.51" y2="144.96"/><polyline class="cls-1" points="424.23 140.89 425.64 142.63 427.03 140.89"/><line class="cls-1" x1="400.15" y1="137.37" x2="398.54" y2="168.94"/><line class="cls-1" x1="399.84" y1="190.08" x2="436.27" y2="198.44"/><line class="cls-1" x1="396.96" y1="200.77" x2="436.77" y2="208.26"/><line class="cls-1" x1="425.08" y1="210.68" x2="436.78" y2="212.52"/><line class="cls-1" x1="396.98" y1="213.85" x2="412.62" y2="215.54"/><line class="cls-1" x1="405.73" y1="218.08" x2="411.99" y2="218.92"/><line class="cls-1" x1="424.33" y1="220.1" x2="436.51" y2="222.19"/><line class="cls-1" x1="423.28" y1="216.24" x2="430.44" y2="217.04"/><line class="cls-1" x1="397.62" y1="245.35" x2="431.5" y2="251.16"/><path class="cls-1" d="M406.54,252l26.62,4.17,6.39,14.76s53,3.76,67.5,5.52,50.69,8.09,55,8.34"/><line class="cls-1" x1="424.43" y1="226.47" x2="436.31" y2="227.98"/><line class="cls-1" x1="417.48" y1="242.01" x2="436.33" y2="244.54"/><polyline class="cls-1" points="436.27 194.87 396.8 185.14 377.69 194.43 377.91 198.31"/><polyline class="cls-1" points="370.57 201.83 390.42 193.4 390.16 190.09"/><polyline class="cls-1" points="370.46 206.85 396.81 196.37 428.64 202.78"/><line class="cls-1" x1="370.04" y1="211.33" x2="391.71" y2="203.08"/><polyline class="cls-1" points="386.88 212 396.83 208.88 412.35 210.94"/><polyline class="cls-1" points="370.67 181.83 379.29 148.71 381.07 148.71 382.1 156.1 403.88 60.81 402.86 59.29 404.39 58.27 405.92 59.28 405.16 60.56 423.88 167.76 425.13 145.35 426.91 145.6 426.4 146.36 434.85 179.21 439.69 183.28"/><line class="cls-1" x1="370.48" y1="224.12" x2="376.02" y2="222.41"/><line class="cls-1" x1="387.32" y1="218.98" x2="396.7" y2="216.62"/><polyline class="cls-1" points="370.74 264.21 397.31 256.36 425.65 260.34"/><line class="cls-1" x1="376.74" y1="255.82" x2="396.52" y2="249.89"/><line class="cls-1" x1="372.41" y1="249.96" x2="396.73" y2="242.21"/><line class="cls-1" x1="386.48" y1="234.97" x2="396.71" y2="231.76"/><line class="cls-1" x1="388.88" y1="180.16" x2="389.19" y2="184.22"/><line class="cls-1" x1="414.09" y1="179.87" x2="413.71" y2="184.83"/><line class="cls-1" x1="428.87" y1="184.18" x2="428.22" y2="188.65"/><line class="cls-1" x1="422.46" y1="187.59" x2="422.04" y2="191.01"/><line class="cls-1" x1="404.54" y1="183.14" x2="404.34" y2="186.98"/><line class="cls-1" x1="414.79" y1="193.57" x2="415.01" y2="199.76"/><line class="cls-1" x1="376.92" y1="187.56" x2="377.05" y2="190.42"/><line class="cls-1" x1="382.37" y1="188.28" x2="382.59" y2="191.91"/><line class="cls-1" x1="384.3" y1="196.17" x2="384.74" y2="200.86"/><line class="cls-1" x1="374.07" y1="201.09" x2="374.72" y2="204.92"/><line class="cls-1" x1="381.12" y1="207.47" x2="381.53" y2="212.26"/><line class="cls-1" x1="390.08" y1="211.09" x2="390.3" y2="218.12"/><polyline class="cls-1" points="390.21 225.75 396.28 224.09 411.35 225.21"/><line class="cls-1" x1="406.48" y1="198.27" x2="406.49" y2="201.9"/><line class="cls-1" x1="422.9" y1="201.67" x2="422.7" y2="205.5"/><line class="cls-1" x1="427.26" y1="217.08" x2="427.26" y2="220.21"/><line class="cls-1" x1="427.86" y1="243.52" x2="427.58" y2="250.06"/><line class="cls-1" x1="412.51" y1="248.38" x2="412.8" y2="252.36"/><line class="cls-1" x1="387.43" y1="245.87" x2="387.22" y2="252.39"/><line class="cls-1" x1="380.32" y1="255.03" x2="380.54" y2="261"/><line class="cls-1" x1="422.75" y1="178.33" x2="422.45" y2="182.26"/><line class="cls-1" x1="407.94" y1="173.75" x2="407.98" y2="177.59"/><polyline class="cls-1" points="370.22 191.14 396.86 174.83 436.89 186.34 436.98 256.12 433.16 256.13 433.75 326.17"/><line class="cls-1" x1="382.01" y1="181.03" x2="382.3" y2="183.88"/><polyline class="cls-1" points="432.55 277.14 397.19 272.7 376.77 276.95"/><line class="cls-1" x1="411.69" y1="269.06" x2="411.69" y2="274.6"/><line class="cls-1" x1="426.19" y1="271.39" x2="425.98" y2="276.51"/><polyline class="cls-1" points="370.55 283.82 396.77 278.89 415.49 280.73"/><line class="cls-1" x1="385.04" y1="275.92" x2="385.26" y2="281.03"/><line class="cls-1" x1="389.94" y1="268.45" x2="389.94" y2="274.2"/><polyline class="cls-1" points="416.4 286.75 397.21 285.71 376.53 288.16"/><line class="cls-1" x1="422.88" y1="287.34" x2="433.58" y2="288.6"/><line class="cls-1" x1="370.99" y1="294.91" x2="387.74" y2="293.24"/><line class="cls-1" x1="398.19" y1="299.6" x2="416.42" y2="300.19"/><line class="cls-1" x1="397.22" y1="293.17" x2="416.01" y2="293.97"/><line class="cls-1" x1="423.23" y1="293.99" x2="433.47" y2="294.62"/><line class="cls-1" x1="423.24" y1="300.6" x2="433.05" y2="301.02"/><line class="cls-1" x1="405.08" y1="273.97" x2="404.88" y2="279.3"/><line class="cls-1" x1="410.43" y1="286.55" x2="410.22" y2="293.58"/><line class="cls-1" x1="404.89" y1="294.23" x2="404.9" y2="299.99"/><line class="cls-1" x1="397.87" y1="306.18" x2="413.48" y2="306.71"/><line class="cls-1" x1="403.3" y1="313.85" x2="433.07" y2="314.67"/><path class="cls-1" d="M439,278.41s71.25,7.29,76.09,7.8S564,292.54,564,292.54"/><line class="cls-1" x1="439.64" y1="285.66" x2="457.01" y2="286.79"/><line class="cls-1" x1="464.59" y1="287.33" x2="490.82" y2="290.07"/><line class="cls-1" x1="504.65" y1="292.08" x2="521.32" y2="293.87"/><line class="cls-1" x1="528.35" y1="294.72" x2="549.73" y2="296.86"/><line class="cls-1" x1="443.77" y1="290.88" x2="456.07" y2="291.18"/><line class="cls-1" x1="465.24" y1="292.02" x2="484.27" y2="293.38"/><line class="cls-1" x1="440.21" y1="297.25" x2="456.29" y2="298"/><line class="cls-1" x1="465.67" y1="298.85" x2="489.88" y2="300.76"/><line class="cls-1" x1="498.72" y1="301.15" x2="520.45" y2="301.99"/><line class="cls-1" x1="529" y1="301.97" x2="545.15" y2="302.98"/><line class="cls-1" x1="559.93" y1="302.45" x2="564.4" y2="302.56"/><line class="cls-1" x1="446.34" y1="306.16" x2="456.08" y2="306.32"/><line class="cls-1" x1="465.89" y1="307.38" x2="482.51" y2="307.9"/><line class="cls-1" x1="450.5" y1="275.2" x2="450.51" y2="279.03"/><line class="cls-1" x1="463.08" y1="276.89" x2="463.09" y2="279.9"/><line class="cls-1" x1="478.65" y1="278.15" x2="479.16" y2="282.43"/><line class="cls-1" x1="493.01" y1="279.41" x2="493.16" y2="284.1"/><line class="cls-1" x1="456.76" y1="280.59" x2="456.5" y2="284.24"/><line class="cls-1" x1="444.96" y1="279.33" x2="444.97" y2="285.72"/><line class="cls-1" x1="472.69" y1="281.99" x2="472.8" y2="287.79"/><line class="cls-1" x1="451.09" y1="291.69" x2="450.81" y2="297.66"/><line class="cls-1" x1="505.8" y1="281.12" x2="505.62" y2="285.1"/><line class="cls-1" x1="520.39" y1="283" x2="520.59" y2="286.79"/><line class="cls-1" x1="513.77" y1="286.61" x2="514.07" y2="292.58"/><line class="cls-1" x1="532.14" y1="284.12" x2="532.14" y2="286.44"/><line class="cls-1" x1="542.56" y1="285.06" x2="542.33" y2="287.45"/><line class="cls-1" x1="538.27" y1="295.09" x2="538.01" y2="291.02"/><line class="cls-1" x1="479.11" y1="299.72" x2="479.18" y2="295.68"/><line class="cls-1" x1="506.45" y1="307.1" x2="520.34" y2="307.38"/><line class="cls-1" x1="511.53" y1="307.96" x2="511.53" y2="313.72"/><path class="cls-3" d="M160.36,531.5s60.22-53.91,65.08-58.77,44.19-81.59,53.91-93.24,52-55.86,58.76-66.54,18-67.51,18-67.51,0-35.94-14.57-64.11-24.77-71.39-24.77-71.39l-3.4-16.51"/><path class="cls-4" d="M461.4,208.77C479.68,192.7,499.59,178,499.59,178s50-52.45,59.73-67.51,15.06-37.39,22.35-50,13.59-13.6,13.59-13.6"/><path class="cls-3" d="M332,322.19s27.49,3.39,31.86,10.67,11.66,28.17,25.74,30.6,46.63,10.68,68.48,24.77,52.45,27.19,52.45,27.19,40.31,28.17,63.63,33,55.36,4.86,72.85,8.26a198.06,198.06,0,0,1,31.08,8.74"/><path class="cls-4" d="M367.77,341.16s-4.89,23.27-3.43,29.58,17.48,11.66,22.82,5.35c1-1.95,5.83-11.17,5.83-11.17"/><path class="cls-4" d="M426.86,375.32s-2.3,12.91.13,17.28-3.89,13.6-2.43,17.48,17.48,6.32,21.37,4.37,6.31-11.17,6.31-11.17l1.73-16"/><path class="cls-4" d="M508.18,414.35s8.66-16.41,13.51-19.32,20.4-20.89,19.92-24.29-8.26-10.2-8.26-10.2"/><line class="cls-4" x1="513.6" y1="417.06" x2="503.72" y2="440.19"/><path class="cls-4" d="M446.15,141.13a37.35,37.35,0,0,1,7.79-.5c16,1,41.28,18,41.28,18s33.51,28.17,44.68,31.57,30.6,1,36.91,3.4,12.63,5.83,19.91,6.8,14.57-12.14,23.8-6.8,25.25,14.57,25.25,14.57"/><path class="cls-4" d="M314.62,110l-32.68,3.8s-9.71,8.25-15.06,9.22-7.77,8.75-7.77,8.75"/><line class="cls-4" x1="281.94" y1="113.84" x2="263" y2="108.01"/><path class="cls-4" d="M348.47,270.37s-6.8,0-10.68-1.94-4.86-3.4-9.72-3.88-10.68,3.88-10.68,3.88"/><path class="cls-4" d="M477.25,66.33l6.31,4.85s-1.46,20.4-.48,25.26,16.51,47.11,16.51,47.11l1.45,7.77-12.14,17-13.11,7.28-10.2-1.46"/><path class="cls-4" d="M302.17,319.75s-12.63,1.46-11.17,3.4S308,346,308,346"/><path class="cls-4" d="M211.84,343.55l20.33,8.2a12.64,12.64,0,0,0,13.22-2.37l8.22-5.35"/><line class="cls-4" x1="246.81" y1="340.63" x2="296.34" y2="361.03"/><path class="cls-5" d="M248.26,332.86,242.92,328l-5.34-1-3.4-4.37,9.23,1L260.89,329l5.34-.49s12.63,10.69,13.12,13.6.15,12,.15,12"/><line class="cls-4" x1="273.81" y1="335.79" x2="268.11" y2="348.39"/><path class="cls-4" d="M317.72,338.23l9.77,10.45a5.58,5.58,0,0,0,7.9.26l4.18-3.94-1-6.31"/><line class="cls-4" x1="318.36" y1="117.72" x2="339.25" y2="108.49"/><line class="cls-4" x1="324.92" y1="133.76" x2="354.3" y2="120.15"/><line class="cls-4" x1="328.99" y1="150.03" x2="342.16" y2="144.92"/><path class="cls-4" d="M177.55,403.55a86,86,0,0,0,9,.82c3.29,0,9.45-.41,9.45-.41v17.27l-24.26.41L170.56,404l3.7-.41"/><text class="cls-6" transform="translate(173.72 418.45)">E4</text><path class="cls-7" d="M131.69,111.62c-2.3,25.4-4.77,46.59-.38,71.9,2.14,12.35,6.29,24.17,9.35,36.3,2.11,8.42,3.13,17,5.1,25.48,4.57,19.57,14.14,37.19,21.48,55.81,6,15.16,11.31,30.56,18.6,45.16,12.94,25.87,27,51.2,41,76.5,11.15,20.16,22,40.39,35.44,59.14,10.24,14.26,21,27.69,33.62,39.84,10.47,10.06,20.07,21.12,29.47,32.18,1.82,2.14,1.1-4.18-.71-6.31-17.89-21-34.82-36.12-51.46-58.2-14.12-18.74-25.64-38.41-37-58.86-14.46-25.95-28.82-52-42.45-78.39a361.93,361.93,0,0,1-16.53-37.24c-3.57-9.36-7.17-18.69-11.13-27.9-4.42-10.28-9.94-20.63-13.13-31.36a173.29,173.29,0,0,1-5.19-22.38c-2.15-13.62-6.52-26.54-9.87-39.88-7.11-28.35-4.65-57.59-2-86.37.26-2.8-2.9-1.2-3.15,1.58Z"/><path class="cls-7" d="M122.69,108.62c-2.18,18-1.34,34.08-.55,52.23.62,14.51,1.55,29.48,5,43.63.93,3.76,2.48,7.25,3.55,10.94,1.75,6,3.12,12.13,4.63,18.2,4.7,18.88,9.77,37.7,16.53,56,11.19,30.24,25.86,59.62,40.59,88.25,18.33,35.63,38.86,70.24,60.24,104.11,6.11,9.68,12,19.78,19.29,28.66,14.16,17.29,32.07,27.21,45.68,45,1.68,2.2,7.08,2.13,5.37-.1-11.59-15.16-27.12-26.25-40.45-39.73-8-8.13-14.13-17.34-20.28-26.88q-31-48.23-58.38-98.72a1005.36,1005.36,0,0,1-44-91.84c-7.13-17.13-12.41-35-17.11-52.93-3.06-11.66-5.07-24-9.33-35.29-5.13-13.61-5.92-29-6.75-43.42-1.16-20.08-1.52-37.11.89-57.09.33-2.79-3.6-6-3.93-3.28Z"/><path class="cls-7" d="M.28,92.06A233.21,233.21,0,0,1,43.6,131.27C55.34,145,64.66,160,79.37,170.84c10.88,8.06,24.71,16.59,30.29,28.14,4.26,8.81,7.83,18,12,26.87,6.4,13.77,13,27.9,22.16,40.12.92,1.24,3,0,2.09-1.23-14.79-19.84-23.47-43.72-33.68-66.06C107.5,188.44,98,181.23,89.05,174.81c-7.59-5.44-15.22-10.73-21.58-17.63-6.64-7.2-12.11-15.37-18.27-23A216.44,216.44,0,0,0,3.69,91.62c-1.28-.9-4.68-.45-3.41.44Z"/><path class="cls-7" d="M17.23,93.75C31.59,104.28,46,114.72,62,122.66c14.3,7.1,29.51,12.82,42.45,22.38,6.8,5,12.27,11.35,18.24,17.27A89.65,89.65,0,0,0,137.92,174c5.09,3.27,10.7,6.61,14.39,11.51a69.92,69.92,0,0,1,6.4,10.6c10.07,20,16.06,42.23,21.83,63.76,3,11.31,6.84,22.72,7.44,34.46.57,11.22.65,22.47.85,33.7.14,7.29-.61,15.45.95,22.64.34,1.52,2.68.88,2.35-.65-1.44-6.62-.73-14.23-.85-21-.19-10.42-.3-20.85-.72-31.26-.48-11.83-3.4-22.34-6.4-33.78-5.65-21.51-11.66-43.3-20.76-63.65-3.63-8.11-7.76-16.36-14.87-21.94-4.55-3.58-9.54-6.48-14.34-9.68-7-4.67-12.42-11.08-18.32-17-13-13-29.49-20.26-45.86-27.95C51.48,115.1,37.16,105.7,20.69,93.62c-1.26-.93-4.7-.79-3.46.13Z"/><text class="cls-6" transform="translate(54.64 46.35)">Up<tspan class="cls-8" x="21.45" y="0">p</tspan><tspan class="cls-9" x="31.06" y="0">s</tspan><tspan class="cls-10" x="37.88" y="0">ala</tspan></text><text class="cls-6" transform="translate(415.64 553.35)">S<tspan class="cls-11" x="9.1" y="0">t</tspan><tspan class="cls-12" x="15.29" y="0">o</tspan><tspan x="24.22" y="0">ckholm</tspan></text><path class="cls-4" d="M65.17,28.62s18.52,1.09,29.1,1.09,30.42-.55,30.42-.55V52.07l-78,.55.53-23.5Z"/><path class="cls-4" d="M480.78,535.66s-22.9,1.1-36,1.1-37.63-.55-37.63-.55v22.91l96.53.54-.66-23.5Z"/><line class="cls-13" x1="455.19" y1="570.12" x2="455.19" y2="591.04"/><path class="cls-7" d="M455.19,590.41c1.64-1.63,4.87-2.42,7.12-2.48a21.24,21.24,0,0,0-7.12,8.69c-1.41-3.53-4.2-6.32-7.12-8.69C450.47,588.12,453.39,588.71,455.19,590.41Z"/><line class="cls-13" x1="82.04" y1="18.74" x2="67.25" y2="3.94"/><path class="cls-7" d="M67.69,4.39c0,2.31-1.73,5.15-3.28,6.79A21.23,21.23,0,0,0,63.3,0c3.5,1.5,7.44,1.5,11.18,1.11C72.64,2.67,70.16,4.32,67.69,4.39Z"/></g></g></svg>