<svg xmlns="http://www.w3.org/2000/svg" viewBox="0 0 217.75 421.04"><defs><style>.cls-1{fill:none;stroke:#3a3f44;stroke-linecap:round;stroke-linejoin:round;stroke-width:0.75px;}</style></defs><title>Klänning</title><g id="Layer_2" data-name="Layer 2"><g id="Layer_3" data-name="Layer 3"><path class="cls-1" d="M84.09,124.42c-4.06,14.89-35.24,63.36-38,69.37-4.93,10.6-7.86,22-12.27,32.84-5.73,14.08-13.91,27.06-19.89,41-2.83,6.59-5.15,13.37-7.48,20.15l-6,17.65a9.32,9.32,0,0,0,5.91,1c-.53,2.78,2.63,4.71,5.29,5.67a128.3,128.3,0,0,0,31.62,7,5.1,5.1,0,0,1,1.41-3.59l5.64,6.89A4.88,4.88,0,0,0,52,323.88c1.14.5,2.44.07,3.62-.33,12.73-4.33,27.15-8.36,39.9-4.08l18.51,6.2c3.57,1.2,8.36,2,10.35-1.2,1-1.6,1-4,2.74-4.78,1.24-.59,2.68,0,4,.53a34.14,34.14,0,0,0,12.33,2.3c26.1.29,47.93-22.23,74-23.48-3-7-1.11-15.4-4.31-22.31-1-2.13-2.43-4-3.6-6.07-4.24-7.4-4.72-16.27-6.9-24.52-6.1-23-39.67-81-45.64-89.22-5.49-7.58-10.52-15.59-17.18-22.18-3.79-3.75-7.81-7.87-12.93-9.41-3.65-1.1-4.48-6.09-4.42-9.9a29.8,29.8,0,0,1,1.78-10.2,67.82,67.82,0,0,0,2.91-11.57,29.86,29.86,0,0,0,.41-7.55c-.53-5.45-3.36-10.37-6.18-15.06A29.82,29.82,0,0,0,116,64c-1.1-1-2.46-2.71-3.76-3.39a89.94,89.94,0,0,1-9.07-2.37l-8.52-2.34c-4.13-1.13-9.11-2.67-11.48-2.56A7.76,7.76,0,0,0,79,54.9"/><path class="cls-1" d="M65.35,160.86c-2.59-12.81-7.51-39.4-7.27-53.79,0-.91,3.23-31.81,5.14-39.1,1-3.69,2.46-7.46,5.43-9.84s7.28-3.07,11.24-3.36c0,0,4.43-.52,6,.52,2.59,1.74,3.36,5.31,2.88,8.4s-1.95,5.93-3,8.88c-1.75,5-2.28,10.58-5.2,15a6.3,6.3,0,0,1-2,2.06"/><path class="cls-1" d="M73.58,142.14c-1.33-12.17-1.69-18-2.78-30.34.22-3.45,3.63-11.49,4.85-14.72a98.92,98.92,0,0,0,4.6-16.9"/><path class="cls-1" d="M116.59,64.55c4-.36,8.72,9.82,8.72,13.45"/><path class="cls-1" d="M73.38,325c-1.77,9.42,4.84,41.14,5.11,48.07,0,.73-.27,1.76-1,1.61"/><path class="cls-1" d="M92.23,325a437.32,437.32,0,0,1-.81,47.48,79.83,79.83,0,0,0,2.72,28.24,20.2,20.2,0,0,1,1.27,6.79.94.94,0,0,1-1.08,1.12l-4.16.11c-2.22.06-4.62.06-6.41-1.26-2-1.5-2.64-4.23-3.12-6.71-1-5.27-4-19.17-4.39-21.14-.74-3.35-.92-6.29,1.09-9.08"/><path class="cls-1" d="M78.07,368.37c-9.45,1.81-9,8.39-8,12.72s.58,27,.37,29.8h1.09l.72-11.63"/><path class="cls-1" d="M73.92,397c3,4,2.79,9.46,3,14.47.08,1.69.28,3.52,1.45,4.74a6.83,6.83,0,0,0,2.3,1.42,37.28,37.28,0,0,0,21.55,2.4c.82-.15,1.78-.47,2-1.28s-.47-1.54-1.07-2.12a31.75,31.75,0,0,1-9-16.26"/><path class="cls-1" d="M94.79,321.85c.64,12.93,2.17,28.4,2.81,41.33.15,2.88-2.45,9.55-2.45,9.55-1.09,7.27,2.16,10.21,3,15.89s2.43,11.42,5.91,16c.68.89,1.34,2.06,2.44,2.29,8.65,1.82,9.09-1.76,9.08-2.22-.07-2.43-1.59-4.55-2.8-6.67-3.16-5.56-3.42-12.14-3.45-18.54,0-3.37,4.82-41.48,4.73-53.25"/><path class="cls-1" d="M114.85,401.35c2.47,2.27,6.94,10.14,8,13.5.21.65.38,1.49-.14,1.94a1.76,1.76,0,0,1-1.24.26,37.15,37.15,0,0,1-15.44-4.35c-1.45-.77-2.94-2.75-4-4a12.77,12.77,0,0,1-2.35-4.54c-1.19-3.5-3.32-7.08-3.78-10.75"/><path class="cls-1" d="M91.51,377.45c0-9.81,4.37-9.74,5.09-9.81"/><path class="cls-1" d="M136.41,295l-4.3-23.69a120.6,120.6,0,0,0-3.29-14.61c-1.43-4.51-3.39-8.86-4.6-13.43-1.82-6.88-1.91-14.1-3.08-21.12-2-11.68-6.9-22.66-9.66-34.18-4.3-17.93-3.23-36.65-2.13-55,0,0-.75-9.44.7-9.81s3,8.48,3,8.48c1.92,6.52,4,13.34,8.83,18.14,1.91,1.9,4.2,3.43,5.85,5.56,2.17,2.79,3,6.35,3.9,9.78,5.09,20.14,12.37,39.85,23.2,57.57,3.66,6,7.72,11.74,10.65,18.11,3.66,8,5.44,16.67,8.21,25,4.24,12.8,10.8,24.7,17.31,36.51-8.52,5.52-19.64,0-29.79-.07-13.42-.06-25.41,9.8-38.83,9.61-3.55-.05-7.13-.81-10.63-.18-4,.71-7.38,3.13-11.19,4.37-6.23,2-13.07.84-19.24-1.35s-12-5.34-18.21-7.35c-14-4.52-29.09-3-43.69-1.48.16.75-.22-15.75,3.29-23.82a46.3,46.3,0,0,1,4-6.71c5.62-8.64,9-18.5,12.28-28.26l12-35.46c3.52-10.38,6.5-22.24,9.26-32.86,1.81-7,26.17-48.33,28-48,0,0-12.72,25.08-13.08,35.62s-8.72,43.61-10.54,47.61"/><path class="cls-1" d="M93.37,145.39l.28,76.09c0,9.74.07,19.54-1.52,29.15-2,11.94-6.45,23.45-7.38,35.51-.58,7.61.18,15.62-3.08,22.52"/><path class="cls-1" d="M26.58,288.81c5.76-.51,11.78-1,17.16,1.15,4.82,1.93,8.62,5.77,13.25,8.11,5.18,2.61,11.11,3.19,16.88,3.73"/><path class="cls-1" d="M88.8,302.3c12.88,1.86,26.15,3.71,38.77.53,4.92-1.24,9.62-3.22,14.48-4.68,4-1.21,8.13-2.06,12.24-2.91l13.22-2.73a10,10,0,0,0,3.25-1.07,17.47,17.47,0,0,0,2.42-2.06,11.62,11.62,0,0,1,7.54-2.83"/><path class="cls-1" d="M190.47,289.66c2,.31,4.12.58,5.83-.44a15.15,15.15,0,0,0,1.72-1.39c3.24-2.74,7.67-3.46,11.87-4.08"/><path class="cls-1" d="M139.84,148.2C149,159.37,158.31,170.74,164,184c3.41,8,5.41,16.51,8.25,24.73,2.36,6.85,5.32,13.52,7,20.56,2.1,8.7,2.28,17.88,5.54,26.21,2.22,5.66,5.79,10.73,7.79,16.48,1.08,3.11,1.67,6.37,2.52,9.55"/><path class="cls-1" d="M27.88,307.49c3.43-1.46,7.3.29,10.61,2l9.44,4.91a7.38,7.38,0,0,0,1.79.75,10.27,10.27,0,0,0,2.35.12A16.51,16.51,0,0,1,59.4,317"/><path class="cls-1" d="M135.63,315.18l18.39.08a17.52,17.52,0,0,0,4.74-.41c4.05-1.1,6.79-4.88,10.57-6.71,8.24-4,16.7-1.88,20.22-4.74"/><path class="cls-1" d="M122.36,117.68a42.55,42.55,0,0,1-4.94.17c-11.49-.83-23,1.34-34.5,2L75.06,98.44"/><path class="cls-1" d="M83.88,123.73c5.69,1.37,11.32-2,17.07-3.13a43.83,43.83,0,0,1,8.8-.41l13.06.28"/><path class="cls-1" d="M81.09,91a13.25,13.25,0,0,0,3.07-5.77"/><path class="cls-1" d="M86.2,78.25a13,13,0,0,1,2.68-8.7"/><path class="cls-1" d="M92.05,65.16V63"/><path class="cls-1" d="M92.33,68c1.57.21,2.66,1.63,3.52,3A77.19,77.19,0,0,1,108,115.67"/><path class="cls-1" d="M85.67,81.57C87,87.7,92.39,92,95.25,97.58c3.15,6.12,3.37,14,8.42,18.62a.75.75,0,0,1-1,.35"/><path class="cls-1" d="M80.52,94.08c-.46,2,1.09,3.86,1.55,5.86.28,1.2.16,2.46.34,3.69.72,4.82,5.88,8.12,6.39,13"/><path class="cls-1" d="M110.05,63.46c-.32,6.35-.4,15.1,2.9,20.53,1.92,3.14,4.36,5.93,6.19,9.12,4.57,8,5.08,16.14,1.45,24.5"/><path class="cls-1" d="M120.29,93.47c.24-3.5-.11-7,0-10.52s.43-6.46,2.47-9.31"/><path class="cls-1" d="M95.51,70.37a7,7,0,0,1,6.37,1.57,24.31,24.31,0,0,1,4.61,5.43q4.14,5.91,8.69,11.5c.12.14.27.3.45.26"/><path class="cls-1" d="M84.45,52.18A25.46,25.46,0,0,0,88.19,47a27.22,27.22,0,0,0,1.49-2.7c1.45-3.19,1.59-6.79,1.71-10.3"/><path class="cls-1" d="M106.92,59c-1.6-2.08-1.68-3.62-2.12-5.59A4,4,0,0,1,107,49"/><path class="cls-1" d="M93.42,36a20.14,20.14,0,0,0,18.34,12.64,5.43,5.43,0,0,0,2.5-.45,5.87,5.87,0,0,0,1.79-1.65c2.38-2.9,7.61-11.87,6.35-15.4-.48-1.35-.85-6.22-1.09-7.63a24.13,24.13,0,0,0,.37-4.73"/><path class="cls-1" d="M78.43,54.74c-.73-11.27,2.79-16.06,3.27-23.62.14-2.1.17-7.26.37-9.81C83.52,11.49,86.79,2.41,104.9.45,107,0,114.4,2.07,115.62,3.51c1.53,1.79,6,2.65,7.15,4.71,1.32,2.4,1.06,5.35.36,8a7.71,7.71,0,0,1-1.45,2.54c-.59.4-2.53,0-3.23-.14-6.47-1.36-14-.25-16.4-6.4-2.18.27-3.09,2-4,4a42.93,42.93,0,0,0-1.46,4.72c-.57,1.84-3.77,2.48-4.48,3.12-3.3,3-4.3,9.3-3.15,13.6"/><path class="cls-1" d="M109.31,41.2a.51.51,0,0,1,.56.07c.16.12,1.73.92,2.34.64a2.46,2.46,0,0,1,1.9-.33,2.14,2.14,0,0,0,.65.27c.28,0,.52-.17.79-.21a1.46,1.46,0,0,1,.75.2c.2.1-.51,1.27-.78,1.3a13.38,13.38,0,0,1-3.52,0"/><path class="cls-1" d="M116.6,41a.9.9,0,0,0-.72-.63.91.91,0,0,0-.87.39,4.76,4.76,0,0,0-1.8-.17,8.26,8.26,0,0,1-1.71.66"/><path class="cls-1" d="M115,39.39a.87.87,0,0,1,.38-1"/><path class="cls-1" d="M115.08,37.39c-.68.06-1.29-.44-2-.48a6,6,0,0,1-1.2,0c-.38-.1-.68-.65-.36-.89"/><path class="cls-1" d="M116.23,37.66c.72-.73,1.65-.57,1.45-1.82-.16-1-2.1-5.79-1.82-6.9A32,32,0,0,1,117,25.67a14.34,14.34,0,0,1,3.27-1.46,2.65,2.65,0,0,1,1.06.16"/><path class="cls-1" d="M121,125.24s7.27,13.09,12,17.08"/><path class="cls-1" d="M196.18,289.14l3.27,10.91s-11.63,6.54-14.9,7.63-9.45-.73-17.08,6.54"/><path class="cls-1" d="M116.23,27.85a11.16,11.16,0,0,1,3.63-.73,3.64,3.64,0,0,0,2.54-.73"/><path class="cls-1" d="M117,28.21a5,5,0,0,0,2.55.73c1.45,0,1.09-.73,1.09-.73"/><path class="cls-1" d="M111.14,25.67a14.14,14.14,0,0,0-3.27-1.46c-.73,0-3.64-.36-4.36.37"/><path class="cls-1" d="M105.32,27.85a10.7,10.7,0,0,0,2.91.72,7.27,7.27,0,0,0,2.55-.72s-2.91-1.82-4.37-1.46a15.68,15.68,0,0,1-3.27.37"/><path class="cls-1" d="M89.33,29.3s0,3.27,1.09,4,2.18,1.09,2.91.73"/><path class="cls-1" d="M90.79,26.76s1.45.36,1.09,1.45.72,3.27.72,3.27H91.15"/></g></g></svg>