<svg xmlns="http://www.w3.org/2000/svg" viewBox="0 0 131.64 406.84"><defs><style>.cls-1{fill:none;stroke:#3a3f44;stroke-linecap:round;stroke-linejoin:round;stroke-width:0.75px;}</style></defs><title>Kostym</title><g id="Layer_2" data-name="Layer 2"><g id="Layer_3" data-name="Layer 3"><path class="cls-1" d="M38.34,56.77q-10,4.77-20,9.57a4.22,4.22,0,0,0-1.51,1,4.66,4.66,0,0,0-.78,2.41c-.69,4.78-7.59,57.82-8.87,67.83-.27,2.11-1,4.49-1.34,6.51a45.27,45.27,0,0,0-.39,5.35C5,157.08,3.44,170,1.79,175.74,1.13,178,.54,195.12.51,199.05c7.54-5.67,15-2.41,16.07.46,3.28-10,5.57-27.09,8.12-39.93.27-1.39,1.11-6.92,1.51-12.85a199.55,199.55,0,0,1,3-20.69"/><path class="cls-1" d="M.54,200.74c-.23,2.86.12,3.62-.11,6.48-.13,1.63,0,6.61.37,7.8s1.05,3.25,1.4,4.29c.71,2.14.89,4.58,3.17,5.74,2.85,1.45,7.82,6.12,9,6.44.93-.66.58-2.66.82-2.87,1.15-.91.61-2.85-.49-3.82s-.42-.76-2.92-1.85c-1.05-1.79-3.13-5.35-3.52-7.52"/><path class="cls-1" d="M2.62,210c0,2.59,2.08,9.66,3.84,12.88a17.77,17.77,0,0,0,2.73,2.22c1.61.84,4.2,2.7,5.8,3.55"/><path class="cls-1" d="M8.12,206.08a29.81,29.81,0,0,1,2.68,9.36,7.07,7.07,0,0,0,.37,1.84,6.09,6.09,0,0,0,1.67,2.05c1,.9,1.48,2.21,2.92,2.69a5.1,5.1,0,0,0,.32-3.77c-.29-1.26-1.14-1.86-1.36-3.14a28.5,28.5,0,0,1,.2-4c0-5.22.56-6.78-1.16-11.7"/><path class="cls-1" d="M44,57.22c.18,1.2-1.58,2.19-2.25,3.21-1.2,1.82-4.18,3.49-5.39,5.32-.22.33,3,3.11,3.82,3.7"/><path class="cls-1" d="M45.32,65.19c-1.15,3-4.43,4.53-7.09,6.37-.83.57-3.57,1.86-4,2.74S40.63,94.6,41.91,98c1.2,3.18,5.19,30.48,8,32.37"/><path class="cls-1" d="M47.91,57.16a58.63,58.63,0,0,0-2.48,8.43,90.9,90.9,0,0,0-2.06,18.76c-.16,8.74.53,17.6,3.4,25.84.57,1.62,1.21,3.21,1.68,4.85a46.07,46.07,0,0,1,1.22,7.4c.46,4.16.26,8.36.89,12.49.51,3.33,1.26,6.68.89,10-.26,2.35-1.07,4.6-1.55,6.91a54.71,54.71,0,0,0-.86,7.22q-1,13-3,26c-.38,2.4-11.14,26.14-13.43,27.42-1.55.87-7.21-3.9-8.21-5.34-.59-.86-1.67-.47-1.74-1.51-1.12-15.29,5.23-31.7,7.26-46.9.37-2.77.63-5.56,1.22-8.29,1-4.34-1.28-26.49-2.84-33.42-1.3-5.81-.64-11.93-2-17.73-1.09-4.61-3.44-8.86-4.57-13.46a53.75,53.75,0,0,1-1.15-10.44"/><path class="cls-1" d="M76.07,49.11C73,55.5,72.44,62.78,71,69.75c-2.16,10.58-6.45,20.6-9.58,30.94q-.7,2.34-1.33,4.7c-.49,1.86-.93,3.73-1.35,5.61-2.11,9.51-6.44,34.25-5.77,36.27.55,1.64,2.28,7.65,2.79,9.3.42,1.33,5.5,11.19,8.84,12.91s9.76,7.15,13.52,7.23c14.26,3.67,18.28-1.89,18.28-1.89s-1.6-13.17-3.46-19.66c-2.09-7.32-2.23-15-2.36-22.65"/><path class="cls-1" d="M97.51,115.33a65.17,65.17,0,0,1-3.67,9c-1.6,3.1-3.6,6-4.89,9.23a45.76,45.76,0,0,0-2.41,10.64"/><path class="cls-1" d="M76.69,49.31a82.2,82.2,0,0,0,24,14,20.31,20.31,0,0,1,5.2,2.45c2.5,1.88,3.83,4.9,5,7.78l4.94,11.66c2.72,6.4,14.13,34.32,15.36,51.56.25,3.47-3.89,14.17-4.22,15.73-.8,3.83-5.62,14.77-6.85,16.49-1.8,2.51-8.9,18-11.14,22.27-5.34-2.29-11.8-5.29-14.14-10.61,4.59-6.38,7.3-13.89,9.95-21.29L111.06,142c1-2.81-2.52-5.27-4.44-7.55A42.42,42.42,0,0,1,96.79,110a128.27,128.27,0,0,1,.77-25.24,48.41,48.41,0,0,1,2.9-11.89,6,6,0,0,1,1.6-2.49c.7-.56,1.76-1.09,1.6-2"/><path class="cls-1" d="M49.62,174.45c3.47-.35,7.08.65,10.41-.4a17.82,17.82,0,0,0,2.42-1l1.56-.77"/><path class="cls-1" d="M51.18,180.41A35.82,35.82,0,0,0,65,178.07"/><path class="cls-1" d="M50.3,175.81c-.59,5.62.24,12.37.56,18,.07,1.32,0,2.63,0,3.95"/><path class="cls-1" d="M25.43,209.93c-1.49,24.53-3,49.23,0,73.63.09.79.68,2.42.79,3.22.66,4.68,11.75,33.21,12,34.75C40.55,334.67,46,347,51.38,359.21c3.09-1.26,5.36-3.92,7.5-6.48L67,343a10.18,10.18,0,0,0,1.83-2.74c1.12-2.82-.38-5.93-1.81-8.6-3.13-5.81-6.19-11.75-7.78-18.16-1.07-4.29-1.46-8.71-2.49-13-1.63-6.82-4.86-13.27-5.52-20.24-.47-5,.39-10,1.25-14.86L57.14,239c.54-3.1-.9-4.65.32-7.54"/><path class="cls-1" d="M56,218.63c-1.59,5.15.8,10.57,2.55,15.67,3,8.74,4.17,18,5.29,27.16,1.62,13.3,5.68,82.36,5.74,83,1,10.44-2.81,23.33-5.33,33.51q11.3,2.56,22.76,4.29c1.43-22.77,4.42-106.87,2.71-115.46a35.92,35.92,0,0,1,0-11.66c.73-5.66,2.2-11.2,3.15-16.83a94.24,94.24,0,0,0,1-23.12c-.41-5.28.44-10.64-.55-15.84-1.22-6.37-3.64-12.72-2.79-19.15"/><path class="cls-1" d="M49.65,361.1a39.77,39.77,0,0,1-1.72,7.74c-.77,2.07-1.87,4-2.57,6.09a32.91,32.91,0,0,0-1.06,4.49L42,391.35c-.11.55,3.95,2.54,4.77,2.12a100.82,100.82,0,0,0,13-7.94,7.21,7.21,0,0,0,2.87-3.16"/><path class="cls-1" d="M64.43,380a30,30,0,0,1-3.15,16.53c-.87,1.7-1.92,3.38-2.15,5.27s.7,4.11,2.56,4.57a6.31,6.31,0,0,0,2.82-.22c1-.22,7.49.55,11.39.12,3.65-.39,4.73-2,6.65-2.17l.08-6.95"/><path class="cls-1" d="M83.87,393.29c.21-1.43-1-2.61-1.77-3.86a6.28,6.28,0,0,1-.2-6"/><path class="cls-1" d="M102.71,192.13c-.73,2-6.29,5.11-6.29,5.11a17.8,17.8,0,0,1-2,4.19"/><path class="cls-1" d="M57.29,130c.72-10.75,7.85-19.78,13.48-29A116.9,116.9,0,0,0,81.4,78.74a3.95,3.95,0,0,0-.38-4.1l-5.6-10.45"/><path class="cls-1" d="M79.21,69.6c1.79-.7,4.31-.31,4.3-1.4,0-2.73-.44-8.19-.47-10.92"/><path class="cls-1" d="M47.57,57a12.18,12.18,0,0,1,4.17,2.77,15.64,15.64,0,0,0,1.41,1.41c1.88,1.5,4.65,1.43,6.85.46a19.77,19.77,0,0,0,5.66-4.41l6.76-6.71"/><path class="cls-1" d="M46.37,62.66q3,5.85,5.65,11.9l4.5-8.72c.95-.41,1.9.56,2.47,1.42a73.12,73.12,0,0,1,4.76,8.4l6-6.37"/><path class="cls-1" d="M56,68.47c.76,6.19-1.16,12.35-2.26,18.49-.46,2.59-.78,5.21-1.1,7.82-.86,7-2.53,16-3.39,23.09"/><path class="cls-1" d="M60.49,71.54A7.17,7.17,0,0,1,56,76.13"/><path class="cls-1" d="M59.4,75.36a118,118,0,0,0,1.54,26.93"/><path class="cls-1" d="M53.06,218.18c.36,4.53-2.14,8.71-3.87,12.9-1,2.43-1.76,4.95-2.52,7.46l-8,26.4"/><path class="cls-1" d="M48.4,284a9.7,9.7,0,0,0-5.72,2"/><path class="cls-1" d="M39.49,273.14c-1.6,9.33,5.33,39.85,8.61,45.39q5.94,10,11.09,20.5c.18.36.36.8.14,1.14"/><path class="cls-1" d="M72.77,360.91c-.81-8.81,1.48-17.58,2.1-26.41.75-10.75-1-21.5-1.79-32.25-1-13.65-.47-27.36,0-41.05.12-3.14.19-6.46-1.33-9.22-6-10.82.65-24.88.57-37.24"/><path class="cls-1" d="M88.29,271.13l-3.35,2"/><path class="cls-1" d="M88.64,275c-1.24,2.09-3.64,3.15-5.88,4.08"/><path class="cls-1" d="M92.24,93.89c-3.08-.66-6.18.68-9.14,1.72a34.66,34.66,0,0,1-8.68,2.07c-.36,0,.08,3.73,0,5"/><path class="cls-1" d="M76.54,101.83a25.12,25.12,0,0,0,12-2.24,1.47,1.47,0,0,0,.62-.44c.37-.55-.06-1.45.45-1.87"/><path class="cls-1" d="M77,96.56a23.46,23.46,0,0,1,4.63-8.12A1.77,1.77,0,0,1,83,87.63a1.89,1.89,0,0,1,1,.72l4.66,5.16"/><path class="cls-1" d="M35.71,32.59a6.4,6.4,0,0,1-1-4.65A32.22,32.22,0,0,1,36,23.24a40.21,40.21,0,0,0,1.48-6.85"/><path class="cls-1" d="M62.5,10.48a38.78,38.78,0,0,0-13.06,2.84c-2.73,1-5.37,2.4-8.23,3-2.3.49-5.05.32-6.51-1.51-1.23-1.54-2.56-4.79-2.42-6.75l.19-2.61c.05-.59.49-1.42,1-1.1a4.3,4.3,0,0,0,1.82,2.5c2.51-3,5.47-6.25,9.38-6.47A33.63,33.63,0,0,1,49.74,1c2.82.26,5.66-.45,8.49-.29C64.78,1,70.36,6.14,73,12.16S75.66,25,75.14,31.52"/><path class="cls-1" d="M68.89,29.34c1.08.18,1.87-1.14,3-1.24a2.39,2.39,0,0,1,2.07,1.41,8.05,8.05,0,0,1,.44,7,10.24,10.24,0,0,1-4.84,5.19,4.61,4.61,0,0,1-3.67.54"/><path class="cls-1" d="M71.88,30.15a1.15,1.15,0,0,0-1.26.14,3.26,3.26,0,0,0-.81,1.06,5.71,5.71,0,0,0-.61,1.39A9.24,9.24,0,0,1,69,33.93a4.33,4.33,0,0,1-.46.81,7.26,7.26,0,0,0-1.08,3.51,1.58,1.58,0,0,0,.24,1.09c.52.67,1.65.31,2.18-.35s.76-1.54,1.35-2.14"/><path class="cls-1" d="M56.16,12a8.64,8.64,0,0,0,3.43,5.13c-.29.35-.83.34-1.18.63A1.78,1.78,0,0,0,58,19.16a14.21,14.21,0,0,0,.28,3.63,4.74,4.74,0,0,0,2,3,20,20,0,0,0,1.88.86c.66.33,1.25.79,1.89,1.14a6.81,6.81,0,0,0,4.22.79"/><path class="cls-1" d="M38.36,41a4.55,4.55,0,0,1,2,.85"/><path class="cls-1" d="M41.52,41.81a1.91,1.91,0,0,0,1.25-1.94"/><path class="cls-1" d="M49.21,58a10.79,10.79,0,0,0-.4-3.19"/><path class="cls-1" d="M38.92,45.92a6.15,6.15,0,0,1,1.54.15,17.62,17.62,0,0,0,4.23.16"/><path class="cls-1" d="M40,48.52a6.15,6.15,0,0,0,2.21-.33"/><path class="cls-1" d="M48.76,30.75c-1.17,0-2.09-1.13-3.26-1.25a7.27,7.27,0,0,0-3,.45c-1,.39-2,0-3,.58"/><path class="cls-1" d="M34.88,29.94a2,2,0,0,1,1.43.2,3,3,0,0,0,.83.22.71.71,0,0,0,.7-.39s-2.05,6.29-2.84,9.3a2.3,2.3,0,0,0-.09,1.32c.31.94,1.62,1.13,2.16,1.95a2.94,2.94,0,0,1,.37,1.24c.22,1.81.38,3.84,1.75,5a4.4,4.4,0,0,1,.81.74,4.1,4.1,0,0,1,.3,2.24,4.33,4.33,0,0,0,3,3.9,6.21,6.21,0,0,0,3,0c3.12-.65,5.8-2.56,8.58-4.11s6-2.8,9.1-2"/><path class="cls-1" d="M47,32.77c.14-.08.29-.23.21-.37-.26-.4-3-.76-3.56-.76-.73,0-1.15,0-1.18.89a1.74,1.74,0,0,0,1.44,1.59C44.9,34.28,46.09,33.26,47,32.77Z"/><path class="cls-1" d="M61.27,400.65c3,.05,5.89.59,8.85.63,9,.38,10.83-2.82,9.1-3.56"/><path class="cls-1" d="M70.81,388a4.36,4.36,0,0,1,2,1.73l3.11,4c1.09,1.41,2.4,2.93,4.18,3"/><path class="cls-1" d="M64,395.59l7.3.46"/><path class="cls-1" d="M66.82,392.85,70.27,391c.12-.06.26-.13.38-.07a.37.37,0,0,1,.17.18L72,392.92"/><path class="cls-1" d="M66.32,390.6a12.89,12.89,0,0,0,2.55-2.05c.17-.19.5-.37.63-.15"/><path class="cls-1" d="M67.49,387.87c.23-.51.9-.59,1.43-.74a3.51,3.51,0,0,0,2.13-1.64,4.59,4.59,0,0,0,1.47,2.4"/><path class="cls-1" d="M68.38,383.51a5,5,0,0,1,1-1.36,1.68,1.68,0,0,1,1.58-.38,2.48,2.48,0,0,1,1.22,1.49l1.06,2.35"/><path class="cls-1" d="M45.55,388.72a8.18,8.18,0,0,0,4-.24,8.67,8.67,0,0,0,1.59-1l7.2-5.19a22.26,22.26,0,0,0,3.83-3.21"/><path class="cls-1" d="M49.08,376.87a7.42,7.42,0,0,1,4.31.73A22.5,22.5,0,0,1,57.12,380a9.79,9.79,0,0,0-2.51-4.92"/><path class="cls-1" d="M47.92,372a4.78,4.78,0,0,0,1.64.08,1.67,1.67,0,0,0,1.3-.91,4.59,4.59,0,0,0,.21-.83,1,1,0,0,1,.47-.68c.25-.12.64,0,.66.3"/><path class="cls-1" d="M54.71,370.4a1.55,1.55,0,0,1,1.34.2,4.7,4.7,0,0,0,.64.46,1.7,1.7,0,0,0,1.52-.34,16.26,16.26,0,0,0,4.9-4.8"/><path class="cls-1" d="M50.9,368.69a13.52,13.52,0,0,1,2.32-1.07,2.09,2.09,0,0,1,1-.16.77.77,0,0,1,.67.67"/><path class="cls-1" d="M51.79,366.63c.77.2,1.38-.61,2.05-1.05a2.54,2.54,0,0,1,1.06-.37,1.6,1.6,0,0,1,1.05.24.9.9,0,0,1,.38.95"/><path class="cls-1" d="M52.08,364.51a3.5,3.5,0,0,0,2.29-.52c.73-.53,1.23-1.51,2.12-1.58s1.45.69,1.93,1.37"/><path class="cls-1" d="M52.23,361.06c2.44.14,4.55-1.59,6.33-3.26,3-2.77,5.84-5.67,8.58-8.67"/><polyline class="cls-1" points="56.72 176.21 57.24 205.14 54.01 209.04"/><line class="cls-1" x1="56.85" y1="210.49" x2="76.19" y2="201.34"/><path class="cls-1" d="M65.12,202.69S78,197.06,77.3,196.34s-8.22.66-8.22.66"/><path class="cls-1" d="M44.08,197.55s5,4.32,6,7.54"/><path class="cls-1" d="M26.93,258.76l-.12,18.56c0,2.5,1.74,10.63,4.74,14.63"/><path class="cls-1" d="M52,242.5S44.7,271,45.39,274.59a11,11,0,0,0,3.18,5.73"/><path class="cls-1" d="M45.56,302.8s8.78,21.48,10.58,20.42-6.2-34.32-6.2-34.32"/><path class="cls-1" d="M87.24,263.08S80,274.46,80,277.68s3.2,1.8,5.67,5.39-2.15,1.41-2.16,2.48,1.75,6.09,1.75,6.09"/><path class="cls-1" d="M95.69,182.78l-1.49,1.44a31.91,31.91,0,0,0,10.29,8.64c1.79,0,2.63-2.07,2.63-2.07"/><path class="cls-1" d="M.55,199v1.79s4.31-3.55,7.52-3.17,5,.39,6.76,3.26c.71-.35,1.31-2,1.31-2"/><line class="cls-1" x1="16.61" y1="199.42" x2="15.9" y2="199.77"/></g></g></svg>