<svg xmlns="http://www.w3.org/2000/svg" viewBox="0 0 332.59 349.73"><defs><style>.cls-1{fill:none;stroke:#3a3f44;stroke-linecap:round;stroke-linejoin:round;stroke-width:0.75px;}</style></defs><title>Present</title><g id="Layer_2" data-name="Layer 2"><g id="Layer_3" data-name="Layer 3"><path class="cls-1" d="M302.39,214.6a206.69,206.69,0,0,1-31.73,2.08c-8.1-.09-16.18-.66-24.27-.8-9.63-.17-19.26.26-28.88.63-40.73,1.56-121.22,1.57-121.22,1.57-1.71-3,1.07-53.44-.61-73.05,6.42-.58,12.84-1.3,19.27-1.88H300.73Z"/><path class="cls-1" d="M96,217.5c-19.5-13.61-31.41-36.3-51.42-49.16.26.55,2.48-47.72.77-71.73,1.8,0,3.21,2.53,4.46,3.81Q67.3,118.3,84.08,136.84c3.13,3.46,6.55,7.11,11.1,8.11"/><path class="cls-1" d="M47.24,170.32c3.55,39.61-.49,129.18,0,133.87-.09-.88,17.22,14.63,20.45,17.83a80.38,80.38,0,0,0,7.44,5.91c5.53,4.32,28.32,21.43,28.32,21.43s66.4-5.25,76.6-6.12c8.85-.75,17.61-2.35,26.46-3.08,7.82-.64,15.67-.6,23.5-.86,10.29-.34,20.56-1.2,30.83-2.06L296,334.3c-4.89-39.05,3.59-78.57.65-117.82"/><path class="cls-1" d="M300.51,142.94c-6.53-8.35-14.89-15-23.17-21.65a100.2,100.2,0,0,0-14.06-10l-8.8-6.56"/><path class="cls-1" d="M199.76,101.74c29.11,4.59,58.78,3.26,88.22,1.92l18.1-.82c7.68-.35,16.15-1,21.52-6.55s5.79-14.69,2.58-21.76-9.31-12.4-15.74-16.75C307.39,53,299.39,49,290.83,48c-9.11-1-12.66,5.76-18.79,11.7-12,11.63-24.85,22.6-39.76,30.32a139.48,139.48,0,0,1-28.22,10.6c-9.79,2.61-22.34,6.58-32.33,4.87-.57-5.53,2.08-11,5.78-15.12s8.42-7.22,12.94-10.45c4-2.87,7.91-5.9,11.81-8.92l28.06-21.75c5.23-4.06,10.49-8.14,14.9-13.08a61.75,61.75,0,0,0,10-15.43c7.69,1.66,16.3-1.32,23.09-5.29,3.49-2.05,6.56-4.75,9.92-7a48.23,48.23,0,0,1,40.1-6.17l-31,31.82-10.68,11c-1.06,1.09-3,3.55-4,4.64"/><path class="cls-1" d="M220.61,103.4c16.87.61,32.19-9.11,46.09-18.7,10.57-7.29,21.12-14.78,32.85-20,6.25-2.8,12.78-5.19,19.29-3.59"/><path class="cls-1" d="M254.17,93.49a101.74,101.74,0,0,0,17.28-.09,34.37,34.37,0,0,0,16.11-5.75c2.46-1.77,4.7-4.19,5.12-7.18.52-3.67-1.79-7.08-4-10.06"/><path class="cls-1" d="M182,85.89a9.6,9.6,0,0,0-8.56.48c-2.83,1.65-4.72,4.71-7.73,6"/><path class="cls-1" d="M175.12,85.62c-2.16.58-4.25-.72-6.48-.9s-4.72,0-6.26,1.65A8.77,8.77,0,0,0,161,88.6L154.77,101a8.36,8.36,0,0,0-1.25,4.37,24,24,0,0,1,6.79,2"/><path class="cls-1" d="M164,101.26c-1.64,1.13-4,2.5-3.9,4.49s2,2.93,5.45,3,5.81-1.33,6.29-3.25"/><path class="cls-1" d="M38.33,96.87C33,93.49,37.2,76.68,40.87,71.52c3.14-4.41,8.4-6.91,13.73-7.84s10.78-.46,16.16,0a113.89,113.89,0,0,1,14,1.86c24.33,5.33,46,27.48,69.16,36.73"/><path class="cls-1" d="M33.71,80.33C28.4,80,19.55,79.8,14.3,80.7S3.86,83.83.38,87.85c5.65,0,11,2.25,16.52,3.61,6.27,1.56,11.6,2.27,18,1.43"/><path class="cls-1" d="M38.12,97.05c9.12-2.63,28.08,2,36.68,3.84a60.44,60.44,0,0,0,25.89,0c7.68-1.71,15.35-5,23.12-3.74,5.32.83,10.69,4.55,15.78,2.78"/><path class="cls-1" d="M86.34,102.53c5.7,2.51,6.15,3.57,12,6.08s12.42,2.84,18.81,2.76c6-.08,12.15-.5,17.71-2.79,5.32-2.2,18.71-3.67,18.71-3.67-9.65-1.64-19.94-8.64-28.66-13.06a80.3,80.3,0,0,0-46.4-7.91C64.28,85.8,50.9,91.43,37.71,97c-4.24-4.38-4.36-11.21-4-17.3C34.18,71.44,35,63.19,35.89,55c.48-4.63,1.37-9.94,5.37-12.32,1.59-1,3.53-1.3,4.92-2.52a11,11,0,0,0,2.59-4.44A67,67,0,0,1,60.14,17c3.22-3.74,7.11-7.79,6.73-12.71l23.67,8.16a150.65,150.65,0,0,1,19.38,7.71C125,27.88,137.1,40.49,147.22,54.1c6.92,9.31,15.52,21.1,14.69,32.67"/><path class="cls-1" d="M133.11,75.3c1.16,4.31,4.52,7.62,7.75,10.71,2,1.9,4,3.85,6.62,4.85,3,1.14,6.23.89,9.38.62-3.79-1.24-5.54-10.81-9.08-12.65-.36-.19-1-.18-1,.23"/><path class="cls-1" d="M177.42,96.6c2.52.6,5.1-.81,7-2.6s3.29-4,5.25-5.7a26.48,26.48,0,0,1,6.89-3.81l16.78-7.17"/><path class="cls-1" d="M187.28,91c4.33.44,12.14,1.25,16-.84,2.85-1.56,5-4.4,8.15-5.27"/><path class="cls-1" d="M172,105.85c-.95,4.61-12.6,31.92-11.85,37.21a510.46,510.46,0,0,1,4.34,74.36c-.91,50.55-7.07,110.67-5.19,125.51"/><path class="cls-1" d="M236,338.74c-.68-36.78-1.43-72.16,1.61-108.82,1.64-19.83-3.29-87.07-3.29-87.07S201,115.61,193.92,111.43c-2.81-1.67-5.72-3.44-7.43-6.22"/><path class="cls-1" d="M153.14,104.91c-4.83.84-11.56,5.55-15.68,8.21-3.71,2.4-41.5,17.57-58.11,18.48-.72,3.55-2.22,31.23-3.57,67,0,.35,1.27,1.4,1.26,1.75-1.7,45.48-4.45,101.3-3.92,120.16"/><path class="cls-1" d="M53.56,304.08c-2.4-22.45,1.84-109.46,2.52-126.7-1.37-1.58-1.61-1.4-1.61-1.4s.41-67,2.1-68.66c1.12-1.13,17.21-3.83,22.43-5.66"/><path class="cls-1" d="M175.09,106s-.28,7.68-1.33,9.57-2.52,4.82-2.52,4.82"/><path class="cls-1" d="M179.56,106a8.3,8.3,0,0,0,1.12,4.19"/></g></g></svg>