<svg xmlns="http://www.w3.org/2000/svg" viewBox="0 0 100.05 169.27"><defs><style>.cls-1{fill:none;stroke:#3a3f44;stroke-linecap:round;stroke-linejoin:round;stroke-width:0.75px;}</style></defs><title>Tal</title><g id="Layer_2" data-name="Layer 2"><g id="Layer_3" data-name="Layer 3"><path class="cls-1" d="M68.27,11S52.32,39.3,50.08,45.3c-2.75,7.36-7.69,17.15-10.5,24.49s-4.18,17.15-1.4,24.49c.91,2.38,1.67,6.56,1.18,9.06-3.21,16.62-15.17,39.91-18,44.11s-5.68,5.44-4.89,7c1,2,6.3,3.73,8.4,2.92-.71-4.32,4.05-14.26,7.37-20.91l11.6-23.31A33.38,33.38,0,0,1,49,104.93c3.7-3.92,9-5.8,13.47-8.86,8.25-5.68,13-15.1,17.15-24.22,6.57-14.42,18.22-47.44,18.22-47.44Z"/><path class="cls-1" d="M25.59,152.35c2.8,1.4,6.1,3.73,8.7,5.31s4.92,4.56,4,7.46A5.76,5.76,0,0,1,34,168.64a14.89,14.89,0,0,1-5.72-.06c-5.56-.85-20.22-5-25.12-12-2.36-3-3.91-6-1.9-9.26s13.25.65,18,2.26"/><path class="cls-1" d="M84.71,58.73l-40.36.13s8.37-1.2,15-1.4S84.71,58.73,84.71,58.73Z"/><path class="cls-1" d="M38.46,95.15s2.15,4.49,6.45,5.76a19.05,19.05,0,0,0,8.59.29"/><path class="cls-1" d="M72.1,47h0a2,2,0,0,1-2-2h0c0-1.09,1.65-2.18,2.36-2.18s1.61,1.09,1.61,2.18h0A2,2,0,0,1,72.1,47Z"/><path class="cls-1" d="M70.77,37.51c-1.1,0-1.66-1.08-2-2s.89-2,2-2h0a2,2,0,0,1,2,2h0C72.94,37.23,70.77,37.51,70.77,37.51Z"/><path class="cls-1" d="M81.53,25.94a2.28,2.28,0,0,1-2-2h0a2,2,0,0,1,2-2h0a1.91,1.91,0,0,1,1.75,1.94A2.52,2.52,0,0,1,81.53,25.94Z"/><path class="cls-1" d="M93.33,4.94a2.07,2.07,0,0,1-2-2h0a2.15,2.15,0,0,1,2-2,1.94,1.94,0,0,1,2,2h0A2.22,2.22,0,0,1,93.33,4.94Z"/><path class="cls-1" d="M78.24,12.05a2,2,0,0,1-2-2h0a2,2,0,0,1,2-2h0a2.29,2.29,0,0,1,2,2A2.35,2.35,0,0,1,78.24,12.05Z"/><path class="cls-1" d="M39,97q-.75-.47-1.47-1c-8.25-5.68-13-15.1-17.15-24.22C13.84,57.43,2.19,24.41,2.19,24.41L31.78,11S47.73,39.3,50,45.3"/><path class="cls-1" d="M61.05,97.11a17.35,17.35,0,0,0-.36,6.23c3.21,16.62,15.17,39.91,18,44.11s5.68,5.44,4.89,7c-1,2-6.3,3.73-8.4,2.92.71-4.32-4.05-14.26-7.37-20.91l-11.6-23.31A33.38,33.38,0,0,0,51,104.93c-.3-.32-.61-.62-.94-.92"/><path class="cls-1" d="M74.46,152.35c-2.8,1.4-6.1,3.73-8.7,5.31s-4.92,4.56-4,7.46A5.76,5.76,0,0,0,66,168.64a14.89,14.89,0,0,0,5.72-.06c5.56-.85,20.22-5,25.12-12,2.36-3,3.91-6,1.9-9.26s-13.25.65-18,2.26"/><path class="cls-1" d="M47.7,51.18c-2.88-.32-6.51-.65-9.74-.74-6.64-.2-25.35,1.26-25.35,1.26l34.79.12Z"/><path class="cls-1" d="M26.84,38.72h0a2.15,2.15,0,0,0-1.42-2.65h0c-1.12-.33-2.74,1-3,1.75s.61,2,1.73,2.32h0A2.13,2.13,0,0,0,26.84,38.72Z"/><path class="cls-1" d="M28.16,27.24c1.16,0,1.77-1.16,2.12-2.12S29.32,23,28.16,23h0A2.13,2.13,0,0,0,26,25.12h0C25.83,26.94,28.16,27.24,28.16,27.24Z"/><path class="cls-1" d="M10.45,16.39a2.45,2.45,0,0,0,2.13-2.12h0a2.13,2.13,0,0,0-2.13-2.12h0a2,2,0,0,0-1.87,2.07A2.7,2.7,0,0,0,10.45,16.39Z"/><path class="cls-1" d="M14.32,4.64a2.2,2.2,0,0,0,2.12-2.13h0A2.27,2.27,0,0,0,14.32.39a2.07,2.07,0,0,0-2.13,2.12h0A2.38,2.38,0,0,0,14.32,4.64Z"/></g></g></svg>